# xmcd CD database file
#
# Track frame offsets:
#	150
#	20770
#	52515
#
# Disc length: 4440 seconds
#
# Revision: 0
# Processed by: cddbd v1.5.1PL0 Copyright (c) Steve Scherf et al.
# Submitted via: CDex 1.51
#
DISCID=18115603
DTITLE=橋本仁 - ロックマンのテーマ 〜風を突き抜けて〜
DYEAR=2002
DGENRE=Anime
TTITLE0=ロックマンのテーマ 〜風を突き抜けて〜
TTITLE1=ロックマンのテーマ 〜風を突き抜けて〜 (カラオケ)
TTITLE2=data
EXTD=YEAR: 2002
EXTT0=
EXTT1=
EXTT2=
PLAYORDER=
